<?xml version="1.0" encoding="UTF-8"?><svg xmlns="http://www.w3.org/2000/svg" viewBox="0 0 648.25 186.78"><defs><style>.d{fill:#fff;}</style></defs><g id="a"/><g id="b"><g id="c"><g><path class="d" d="M57.74,93.89v44.44c0,10.8,9.29,11.8,25.86,10.8v34.14c-49.21,5.02-63.51-9.79-63.51-44.94v-44.44H0V57.74H20.08v-23.85l37.66-11.3V57.74h25.86v36.15h-25.86Z"/><path class="d" d="M222.18,57.74v125.52h-37.66v-11.8c-6.78,9.29-19.33,15.31-35.9,15.31-25.36,0-46.95-18.08-46.95-51.97V57.74h37.66v71.55c0,15.56,9.79,22.85,21.84,22.85,13.81,0,23.35-8.04,23.35-25.86V57.74h37.66Z"/><path class="d" d="M317.1,55.23v42.68c-15.57-2.51-37.66,3.77-37.66,28.62v56.74h-37.66V57.74h37.66v22.34c5.02-16.82,21.84-24.86,37.66-24.86Z"/><path class="d" d="M329.9,24.1c0-12.3,10.29-22.59,22.59-22.59s22.59,10.29,22.59,22.59-10.29,22.59-22.59,22.59-22.59-10.29-22.59-22.59Zm3.77,33.64h37.66v125.52h-37.66V57.74Z"/><path class="d" d="M396.93,0h37.66V183.27h-37.66V0Z"/><path class="d" d="M458.2,0h37.66V183.27h-37.66V0Z"/><path class="d" d="M648.25,57.74v125.52h-37.66v-11.8c-8.29,9.54-20.59,15.31-37.41,15.31-32.89,0-60-28.87-60-66.28s27.11-66.28,60-66.28c16.82,0,29.12,5.77,37.41,15.31v-11.8h37.66Zm-37.66,62.76c0-18.83-12.55-30.63-29.88-30.63s-29.88,11.8-29.88,30.63,12.55,30.63,29.88,30.63,29.88-11.8,29.88-30.63Z"/></g></g></g></svg>